# xmcd
#
# Track frame offsets:
# 150
# 20022
# 43639
# 46283
# 50478
# 56400
# 70923
# 77655
# 83789
# 86715
# 91509
# 95703
# 103247
# 110579
# 124150
# 136875
# 151716
# 159647
# 168706
# 177624
#
# Disc length: 2457 seconds
#
# Revision: 0
# Processed by: cddbd v1.5.1PL0 Copyright (c) Steve Scherf et al.
# Submitted via: Audion 3.0.2 (http://www.panic.com/audion/)
#
DISCID=0b099714
DTITLE=Renovators - 10.17.04
DYEAR=1900
DGENRE=
TTITLE0=10.17.04
TTITLE1=10.17.04
TTITLE2=10.17.04
TTITLE3=10.17.04
TTITLE4=10.17.04
TTITLE5=10.17.04
TTITLE6=10.17.04
TTITLE7=10.17.04
TTITLE8=10.17.04
TTITLE9=10.17.04
TTITLE10=10.17.04
TTITLE11=10.17.04
TTITLE12=10.17.04
TTITLE13=10.17.04
TTITLE14=10.17.04
TTITLE15=10.17.04
TTITLE16=10.17.04
TTITLE17=10.17.04
TTITLE18=10.17.04
TTITLE19=10.17.04
EXTD=
EXTT0=
EXTT1=
EXTT2=
EXTT3=
EXTT4=
EXTT5=
EXTT6=
EXTT7=
EXTT8=
EXTT9=
EXTT10=
EXTT11=
EXTT12=
EXTT13=
EXTT14=
EXTT15=
EXTT16=
EXTT17=
EXTT18=
EXTT19=
PLAYORDER=
